<?xml version="1.0" encoding="UTF-8" standalone="no"?>
<svg
   width="343.07336pt"
   zoomAndPan="magnify"
   viewBox="0 0 343.07336 342.59298"
   height="342.59299pt"
   preserveAspectRatio="xMidYMid meet"
   version="1.2"
   id="svg150"
   sodipodi:docname="logo.svg"
   inkscape:version="1.1 (c68e22c387, 2021-05-23)"
   xmlns:inkscape="http://www.inkscape.org/namespaces/inkscape"
   xmlns:sodipodi="http://sodipodi.sourceforge.net/DTD/sodipodi-0.dtd"
   xmlns="http://www.w3.org/2000/svg"
   xmlns:svg="http://www.w3.org/2000/svg">
  <sodipodi:namedview
     id="namedview152"
     pagecolor="#505050"
     bordercolor="#ffffff"
     borderopacity="1"
     inkscape:pageshadow="0"
     inkscape:pageopacity="0"
     inkscape:pagecheckerboard="1"
     inkscape:document-units="pt"
     showgrid="false"
     inkscape:zoom="1.652"
     inkscape:cx="235.16949"
     inkscape:cy="230.9322"
     inkscape:window-width="1920"
     inkscape:window-height="1011"
     inkscape:window-x="-8"
     inkscape:window-y="-8"
     inkscape:window-maximized="1"
     inkscape:current-layer="surface1" />
  <defs
     id="defs7">
    <g
       id="g2" />
    <clipPath
       xml:id="clip1"
       id="clip1">
      <path
         d="M 89.527344,11.859375 H 285.89062 V 208.22266 H 89.527344 Z m 0,0"
         id="path4" />
    </clipPath>
  </defs>
  <g
     xml:id="surface1"
     id="surface1"
     transform="translate(-10.76847,-11.859375)">
    <g
       style="fill:#cfae94;fill-opacity:1"
       id="g37">
      <g
         transform="translate(109.48028,267.56818)"
         id="g35">
        <path
           style="stroke:none"
           d=""
           id="path33" />
      </g>
    </g>
    <g
       style="fill:#cfae94;fill-opacity:1"
       id="g97">
      <g
         transform="translate(354.92898,267.56818)"
         id="g95">
        <path
           style="stroke:none"
           d=""
           id="path93" />
      </g>
    </g>
    <g
       id="g1191">
      <g
         id="g1103">
        <g
           style="fill:#cfae94;fill-opacity:1"
           id="g13">
          <g
             transform="translate(8.33097,267.56818)"
             id="g11">
            <path
               style="stroke:none"
               d="m 19.6875,-29.625 -1.265625,1.609375 c -0.53125,-0.289063 -1.03125,-0.550781 -1.5,-0.78125 -0.460937,-0.238281 -0.929687,-0.429687 -1.40625,-0.578125 -0.480469,-0.144531 -0.992187,-0.253906 -1.53125,-0.328125 -0.542969,-0.07031 -1.164063,-0.109375 -1.859375,-0.109375 -1.417969,0 -2.6875,0.234375 -3.8125,0.703125 -1.117188,0.46875 -2.070312,1.101563 -2.859375,1.890625 -0.78125,0.78125 -1.375,1.683594 -1.78125,2.703125 -0.40625,1.011719 -0.609375,2.085937 -0.609375,3.21875 0,1.542969 0.46875,2.953125 1.40625,4.234375 0.945312,1.28125 2.425781,2.257812 4.4375,2.921875 0.957031,0.324219 1.769531,0.589844 2.4375,0.796875 0.664062,0.199219 1.289062,0.390625 1.875,0.578125 0.582031,0.1875 1.171875,0.390625 1.765625,0.609375 0.601563,0.21875 1.296875,0.515625 2.078125,0.890625 0.988281,0.46875 1.65625,1.121094 2,1.953125 0.351562,0.824219 0.53125,1.65625 0.53125,2.5 0,1.054688 -0.203125,2.011719 -0.609375,2.875 -0.40625,0.855469 -0.949219,1.574219 -1.625,2.15625 -0.667969,0.574219 -1.4375,1.023438 -2.3125,1.34375 -0.867187,0.324219 -1.75,0.484375 -2.65625,0.484375 C 11.347656,0.046875 10.34375,-0.132812 9.375,-0.5 8.414062,-0.863281 7.53125,-1.378906 6.71875,-2.046875 5.90625,-2.722656 5.195312,-3.550781 4.59375,-4.53125 4,-5.519531 3.546875,-6.628906 3.234375,-7.859375 c -0.09375,-0.375 -0.257813,-0.5625 -0.484375,-0.5625 -0.210938,0 -0.3125,0.203125 -0.3125,0.609375 V 0 c 0,0.375 0.132812,0.5625 0.40625,0.5625 0.164062,0 0.351562,-0.148438 0.5625,-0.4375 l 1.5625,-2.265625 c 0.351562,0.324219 0.785156,0.664063 1.296875,1.015625 0.507813,0.34375 1.078125,0.664062 1.703125,0.953125 0.625,0.289063 1.289062,0.53125 2,0.71875 0.71875,0.1875 1.453125,0.28125 2.203125,0.28125 1.394531,0 2.6875,-0.257813 3.875,-0.765625 1.195313,-0.507812 2.234375,-1.210938 3.109375,-2.109375 0.875,-0.90625 1.566406,-1.972656 2.078125,-3.203125 C 21.742188,-6.488281 22,-7.820312 22,-9.25 c 0,-1.945312 -0.460938,-3.597656 -1.375,-4.953125 -0.917969,-1.351563 -2.367188,-2.320313 -4.34375,-2.90625 -0.667969,-0.195313 -1.292969,-0.367187 -1.875,-0.515625 -0.585938,-0.144531 -1.183594,-0.304688 -1.796875,-0.484375 -0.605469,-0.175781 -1.246094,-0.375 -1.921875,-0.59375 C 10.019531,-18.921875 9.28125,-19.1875 8.46875,-19.5 7.5625,-19.851562 6.875,-20.394531 6.40625,-21.125 c -0.460938,-0.726562 -0.6875,-1.570312 -0.6875,-2.53125 0,-0.894531 0.1875,-1.6875 0.5625,-2.375 0.382812,-0.6875 0.875,-1.242188 1.46875,-1.671875 0.59375,-0.4375 1.273438,-0.765625 2.046875,-0.984375 0.769531,-0.21875 1.546875,-0.328125 2.328125,-0.328125 1.195312,0 2.242188,0.203125 3.140625,0.609375 0.90625,0.40625 1.660156,0.945312 2.265625,1.609375 0.613281,0.667969 1.101562,1.4375 1.46875,2.3125 0.363281,0.875 0.601562,1.777344 0.71875,2.703125 0.03125,0.292969 0.164062,0.4375 0.40625,0.4375 0.195312,0 0.296875,-0.144531 0.296875,-0.4375 v -7.765625 c 0,-0.289063 -0.08984,-0.4375 -0.265625,-0.4375 -0.148438,0 -0.304688,0.121094 -0.46875,0.359375 z m 0,0"
               id="path9" />
          </g>
        </g>
        <g
           style="fill:#cfae94;fill-opacity:1"
           id="g19">
          <g
             transform="translate(31.981934,267.56818)"
             id="g17">
            <path
               style="stroke:none"
               d="M 23.046875,-1.875 C 22.953125,-2.164062 22.882812,-2.570312 22.84375,-3.09375 22.800781,-3.625 22.769531,-4.191406 22.75,-4.796875 c -0.01172,-0.613281 -0.02734,-1.238281 -0.04687,-1.875 -0.01172,-0.644531 -0.05859,-1.257813 -0.140625,-1.84375 -0.179688,-1.15625 -0.46875,-2.113281 -0.875,-2.875 -0.40625,-0.757813 -0.902344,-1.378906 -1.484375,-1.859375 -0.585937,-0.476562 -1.257813,-0.851562 -2.015625,-1.125 -0.75,-0.28125 -1.5625,-0.535156 -2.4375,-0.765625 2.269531,-0.40625 4.015625,-1.210937 5.234375,-2.421875 1.226563,-1.207031 1.84375,-2.726562 1.84375,-4.5625 0,-1.132812 -0.242187,-2.148438 -0.71875,-3.046875 -0.480469,-0.90625 -1.132813,-1.660156 -1.953125,-2.265625 -0.8125,-0.613281 -1.78125,-1.082031 -2.90625,-1.40625 -1.117188,-0.320312 -2.296875,-0.484375 -3.546875,-0.484375 H 1.390625 V -28.625 H 5.15625 V -0.703125 H 1.390625 V 0 h 11.75 V -0.703125 H 9.375 V -14.96875 H 13 c 0.46875,0 0.960938,0.08594 1.484375,0.25 0.53125,0.15625 1.019531,0.460938 1.46875,0.90625 0.445313,0.449219 0.835937,1.074219 1.171875,1.875 0.332031,0.804688 0.570312,1.828125 0.71875,3.078125 0.09375,0.761719 0.144531,1.53125 0.15625,2.3125 0.01953,0.78125 0.0625,1.539063 0.125,2.265625 0.07031,0.730469 0.203125,1.402344 0.390625,2.015625 0.195313,0.605469 0.5,1.125 0.90625,1.5625 0.375,0.40625 0.816406,0.6835938 1.328125,0.828125 0.507812,0.144531 1.054688,0.21875 1.640625,0.21875 0.488281,0 0.976563,-0.054688 1.46875,-0.15625 0.5,-0.09375 0.957031,-0.2109375 1.375,-0.359375 0.425781,-0.144531 0.789063,-0.296875 1.09375,-0.453125 0.3125,-0.164062 0.539063,-0.320312 0.6875,-0.46875 0.08203,-0.082031 0.125,-0.171875 0.125,-0.265625 0,-0.082031 -0.04297,-0.125 -0.125,-0.125 -0.0625,0 -0.152344,0.03125 -0.265625,0.09375 -0.585938,0.40625 -1.242188,0.609375 -1.96875,0.609375 -0.898438,0 -1.476562,-0.363281 -1.734375,-1.09375 z M 9.375,-15.671875 V -28.625 h 4.328125 c 3.3125,0 4.96875,1.90625 4.96875,5.71875 v 1.5625 c 0,3.78125 -1.65625,5.671875 -4.96875,5.671875 z m 0,0"
               id="path15" />
          </g>
        </g>
        <g
           style="fill:#cfae94;fill-opacity:1"
           id="g25">
          <g
             transform="translate(59.385623,267.56818)"
             id="g23">
            <path
               style="stroke:none"
               d="M 9.421875,-15.09375 H 12.875 c 0.632812,0 1.140625,0.09375 1.515625,0.28125 0.382813,0.1875 0.6875,0.460938 0.90625,0.8125 0.21875,0.34375 0.382813,0.765625 0.5,1.265625 0.113281,0.492187 0.226563,1.042969 0.34375,1.65625 0.09375,0.40625 0.210937,0.609375 0.359375,0.609375 0.175781,0 0.265625,-0.191406 0.265625,-0.578125 v -8.859375 c 0,-0.34375 -0.08984,-0.515625 -0.265625,-0.515625 -0.148438,0 -0.265625,0.203125 -0.359375,0.609375 -0.117187,0.617188 -0.230469,1.171875 -0.34375,1.671875 -0.117187,0.492187 -0.28125,0.914063 -0.5,1.265625 -0.21875,0.34375 -0.523437,0.609375 -0.90625,0.796875 -0.375,0.1875 -0.882813,0.28125 -1.515625,0.28125 H 9.421875 V -28.625 H 16.0625 c 0.988281,0 1.816406,0.242188 2.484375,0.71875 0.664063,0.480469 1.203125,1.078125 1.609375,1.796875 0.40625,0.710937 0.703125,1.464844 0.890625,2.265625 0.195313,0.792969 0.3125,1.511719 0.34375,2.15625 0,0.40625 0.113281,0.609375 0.34375,0.609375 0.195313,0 0.296875,-0.1875 0.296875,-0.5625 v -6.640625 c 0,-0.695312 -0.359375,-1.046875 -1.078125,-1.046875 H 1.4375 V -28.625 h 3.75 V -0.703125 H 1.484375 V 0 H 22 c 0.84375,0 1.265625,-0.460938 1.265625,-1.390625 V -7.9375 c 0,-0.695312 -0.121094,-1.046875 -0.359375,-1.046875 -0.199219,0 -0.355469,0.304687 -0.46875,0.90625 -0.242188,1.105469 -0.492188,2.109375 -0.75,3.015625 -0.261719,0.90625 -0.609375,1.6875 -1.046875,2.34375 -0.4375,0.648438 -0.992187,1.148438 -1.65625,1.5 -0.667969,0.34375 -1.511719,0.515625 -2.53125,0.515625 h -7.03125 z m 0,0"
               id="path21" />
          </g>
        </g>
        <g
           style="fill:#cfae94;fill-opacity:1"
           id="g31">
          <g
             transform="translate(84.432953,267.56818)"
             id="g29">
            <path
               style="stroke:none"
               d="M 9.421875,-15.09375 H 12.875 c 0.632812,0 1.140625,0.09375 1.515625,0.28125 0.382813,0.1875 0.6875,0.460938 0.90625,0.8125 0.21875,0.34375 0.382813,0.765625 0.5,1.265625 0.113281,0.492187 0.226563,1.042969 0.34375,1.65625 0.09375,0.40625 0.210937,0.609375 0.359375,0.609375 0.175781,0 0.265625,-0.191406 0.265625,-0.578125 v -8.859375 c 0,-0.34375 -0.08984,-0.515625 -0.265625,-0.515625 -0.148438,0 -0.265625,0.203125 -0.359375,0.609375 -0.117187,0.617188 -0.230469,1.171875 -0.34375,1.671875 -0.117187,0.492187 -0.28125,0.914063 -0.5,1.265625 -0.21875,0.34375 -0.523437,0.609375 -0.90625,0.796875 -0.375,0.1875 -0.882813,0.28125 -1.515625,0.28125 H 9.421875 V -28.625 H 16.0625 c 0.988281,0 1.816406,0.242188 2.484375,0.71875 0.664063,0.480469 1.203125,1.078125 1.609375,1.796875 0.40625,0.710937 0.703125,1.464844 0.890625,2.265625 0.195313,0.792969 0.3125,1.511719 0.34375,2.15625 0,0.40625 0.113281,0.609375 0.34375,0.609375 0.195313,0 0.296875,-0.1875 0.296875,-0.5625 v -6.640625 c 0,-0.695312 -0.359375,-1.046875 -1.078125,-1.046875 H 1.4375 V -28.625 h 3.75 V -0.703125 H 1.484375 V 0 H 22 c 0.84375,0 1.265625,-0.460938 1.265625,-1.390625 V -7.9375 c 0,-0.695312 -0.121094,-1.046875 -0.359375,-1.046875 -0.199219,0 -0.355469,0.304687 -0.46875,0.90625 -0.242188,1.105469 -0.492188,2.109375 -0.75,3.015625 -0.261719,0.90625 -0.609375,1.6875 -1.046875,2.34375 -0.4375,0.648438 -0.992187,1.148438 -1.65625,1.5 -0.667969,0.34375 -1.511719,0.515625 -2.53125,0.515625 h -7.03125 z m 0,0"
               id="path27" />
          </g>
        </g>
        <g
           style="fill:#cfae94;fill-opacity:1"
           id="g43">
          <g
             transform="translate(121.21849,267.56818)"
             id="g41">
            <path
               style="stroke:none"
               d="m 19.6875,-29.625 -1.265625,1.609375 c -0.53125,-0.289063 -1.03125,-0.550781 -1.5,-0.78125 -0.460937,-0.238281 -0.929687,-0.429687 -1.40625,-0.578125 -0.480469,-0.144531 -0.992187,-0.253906 -1.53125,-0.328125 -0.542969,-0.07031 -1.164063,-0.109375 -1.859375,-0.109375 -1.417969,0 -2.6875,0.234375 -3.8125,0.703125 -1.117188,0.46875 -2.070312,1.101563 -2.859375,1.890625 -0.78125,0.78125 -1.375,1.683594 -1.78125,2.703125 -0.40625,1.011719 -0.609375,2.085937 -0.609375,3.21875 0,1.542969 0.46875,2.953125 1.40625,4.234375 0.945312,1.28125 2.425781,2.257812 4.4375,2.921875 0.957031,0.324219 1.769531,0.589844 2.4375,0.796875 0.664062,0.199219 1.289062,0.390625 1.875,0.578125 0.582031,0.1875 1.171875,0.390625 1.765625,0.609375 0.601563,0.21875 1.296875,0.515625 2.078125,0.890625 0.988281,0.46875 1.65625,1.121094 2,1.953125 0.351562,0.824219 0.53125,1.65625 0.53125,2.5 0,1.054688 -0.203125,2.011719 -0.609375,2.875 -0.40625,0.855469 -0.949219,1.574219 -1.625,2.15625 -0.667969,0.574219 -1.4375,1.023438 -2.3125,1.34375 -0.867187,0.324219 -1.75,0.484375 -2.65625,0.484375 C 11.347656,0.046875 10.34375,-0.132812 9.375,-0.5 8.414062,-0.863281 7.53125,-1.378906 6.71875,-2.046875 5.90625,-2.722656 5.195312,-3.550781 4.59375,-4.53125 4,-5.519531 3.546875,-6.628906 3.234375,-7.859375 c -0.09375,-0.375 -0.257813,-0.5625 -0.484375,-0.5625 -0.210938,0 -0.3125,0.203125 -0.3125,0.609375 V 0 c 0,0.375 0.132812,0.5625 0.40625,0.5625 0.164062,0 0.351562,-0.148438 0.5625,-0.4375 l 1.5625,-2.265625 c 0.351562,0.324219 0.785156,0.664063 1.296875,1.015625 0.507813,0.34375 1.078125,0.664062 1.703125,0.953125 0.625,0.289063 1.289062,0.53125 2,0.71875 0.71875,0.1875 1.453125,0.28125 2.203125,0.28125 1.394531,0 2.6875,-0.257813 3.875,-0.765625 1.195313,-0.507812 2.234375,-1.210938 3.109375,-2.109375 0.875,-0.90625 1.566406,-1.972656 2.078125,-3.203125 C 21.742188,-6.488281 22,-7.820312 22,-9.25 c 0,-1.945312 -0.460938,-3.597656 -1.375,-4.953125 -0.917969,-1.351563 -2.367188,-2.320313 -4.34375,-2.90625 -0.667969,-0.195313 -1.292969,-0.367187 -1.875,-0.515625 -0.585938,-0.144531 -1.183594,-0.304688 -1.796875,-0.484375 -0.605469,-0.175781 -1.246094,-0.375 -1.921875,-0.59375 C 10.019531,-18.921875 9.28125,-19.1875 8.46875,-19.5 7.5625,-19.851562 6.875,-20.394531 6.40625,-21.125 c -0.460938,-0.726562 -0.6875,-1.570312 -0.6875,-2.53125 0,-0.894531 0.1875,-1.6875 0.5625,-2.375 0.382812,-0.6875 0.875,-1.242188 1.46875,-1.671875 0.59375,-0.4375 1.273438,-0.765625 2.046875,-0.984375 0.769531,-0.21875 1.546875,-0.328125 2.328125,-0.328125 1.195312,0 2.242188,0.203125 3.140625,0.609375 0.90625,0.40625 1.660156,0.945312 2.265625,1.609375 0.613281,0.667969 1.101562,1.4375 1.46875,2.3125 0.363281,0.875 0.601562,1.777344 0.71875,2.703125 0.03125,0.292969 0.164062,0.4375 0.40625,0.4375 0.195312,0 0.296875,-0.144531 0.296875,-0.4375 v -7.765625 c 0,-0.289063 -0.08984,-0.4375 -0.265625,-0.4375 -0.148438,0 -0.304688,0.121094 -0.46875,0.359375 z m 0,0"
               id="path39" />
          </g>
        </g>
        <g
           style="fill:#cfae94;fill-opacity:1"
           id="g49">
          <g
             transform="translate(144.86506,267.56818)"
             id="g47">
            <path
               style="stroke:none"
               d="M 13.171875,-29.328125 H 1.4375 V -28.625 h 3.75 v 27.921875 h -3.75 V 0 h 11.734375 v -0.703125 h -3.75 v -14.53125 h 11.5625 v 14.53125 h -3.75 V 0 h 11.75 V -0.703125 H 25.21875 V -28.625 h 3.765625 v -0.703125 h -11.75 V -28.625 h 3.75 v 12.65625 H 9.421875 V -28.625 h 3.75 z m 0,0"
               id="path45" />
          </g>
        </g>
        <g
           style="fill:#cfae94;fill-opacity:1"
           id="g55">
          <g
             transform="translate(174.75603,267.56818)"
             id="g53">
            <path
               style="stroke:none"
               d="M 0.953125,-0.703125 V 0 h 9.6875 V -0.703125 H 5.5 L 8.25,-9.125 h 8.765625 l 2.84375,8.421875 h -4.5 V 0 h 12.78125 V -0.703125 H 24.34375 L 14.796875,-29.71875 h -0.53125 L 4.71875,-0.703125 Z m 11.65625,-21.59375 4.1875,12.484375 h -8.28125 z m 0,0"
               id="path51" />
          </g>
        </g>
        <g
           style="fill:#cfae94;fill-opacity:1"
           id="g61">
          <g
             transform="translate(203.59972,267.56818)"
             id="g59">
            <path
               style="stroke:none"
               d="m 12.703125,-28.625 v -0.703125 H 1.484375 V -28.625 H 4.96875 V -0.703125 H 1.484375 V 0 h 11.21875 v -0.703125 h -3.5 V -28.625 Z m 9.375,0 -12.5625,12.5625 10.78125,15.359375 H 16.5 V 0 H 28.84375 V -0.703125 H 25.359375 L 13,-18.421875 23.21875,-28.625 h 3.703125 v -0.703125 h -8.59375 V -28.625 Z m 0,0"
               id="path57" />
          </g>
        </g>
        <g
           style="fill:#cfae94;fill-opacity:1"
           id="g67">
          <g
             transform="translate(232.92341,267.56818)"
             id="g65">
            <path
               style="stroke:none"
               d="M 15.75,-0.703125 V -28.625 h 3.75 c 1.34375,0 2.515625,0.683594 3.515625,2.046875 1.007813,1.367187 1.671875,3.230469 1.984375,5.59375 h 0.921875 l -0.65625,-7.59375 c -0.03125,-0.5 -0.324219,-0.75 -0.875,-0.75 H 2.875 c -0.554688,0 -0.84375,0.25 -0.875,0.75 l -0.640625,7.59375 h 0.90625 C 2.585938,-23.347656 3.25,-25.210938 4.25,-26.578125 5.257812,-27.941406 6.429688,-28.625 7.765625,-28.625 h 3.75 v 27.921875 h -3.75 V 0 H 19.5 v -0.703125 z m 0,0"
               id="path63" />
          </g>
        </g>
        <g
           style="fill:#cfae94;fill-opacity:1"
           id="g73">
          <g
             transform="translate(259.93438,267.56818)"
             id="g71">
            <path
               style="stroke:none"
               d="m 13.609375,-28.625 v -0.703125 H 1.875 V -28.625 h 3.75 V -0.703125 H 1.875 V 0 h 11.734375 v -0.703125 h -3.75 V -28.625 Z m 0,0"
               id="path69" />
          </g>
        </g>
        <g
           style="fill:#cfae94;fill-opacity:1"
           id="g79">
          <g
             transform="translate(275.42531,267.56818)"
             id="g77">
            <path
               style="stroke:none"
               d="M 13.359375,-29.328125 H 1.265625 V -28.625 h 3.75 v 27.921875 h -3.75 V 0 H 13 V -0.703125 H 9.25 v -12.78125 h 4.546875 c 1.269531,0 2.4375,-0.1875 3.5,-0.5625 1.0625,-0.382813 1.972656,-0.925781 2.734375,-1.625 0.757812,-0.695313 1.347656,-1.53125 1.765625,-2.5 0.425781,-0.976563 0.640625,-2.0625 0.640625,-3.25 0,-1.164063 -0.214844,-2.234375 -0.640625,-3.203125 -0.417969,-0.976562 -1.023437,-1.816406 -1.8125,-2.515625 C 19.203125,-27.835938 18.25,-28.375 17.125,-28.75 c -1.117188,-0.382812 -2.371094,-0.578125 -3.765625,-0.578125 z M 9.25,-14.1875 V -28.625 h 4.109375 c 1.625,0 2.894531,0.492188 3.8125,1.46875 0.914063,0.96875 1.375,2.617188 1.375,4.9375 v 1.578125 c 0,2.242187 -0.453125,3.875 -1.359375,4.90625 -0.898438,1.03125 -2.027344,1.546875 -3.390625,1.546875 z m 0,0"
               id="path75" />
          </g>
        </g>
        <g
           style="fill:#cfae94;fill-opacity:1"
           id="g85">
          <g
             transform="translate(299.07628,267.56818)"
             id="g83">
            <path
               style="stroke:none"
               d="M 0.953125,-0.703125 V 0 h 9.6875 V -0.703125 H 5.5 L 8.25,-9.125 h 8.765625 l 2.84375,8.421875 h -4.5 V 0 h 12.78125 V -0.703125 H 24.34375 L 14.796875,-29.71875 h -0.53125 L 4.71875,-0.703125 Z m 11.65625,-21.59375 4.1875,12.484375 h -8.28125 z m 0,0"
               id="path81" />
          </g>
        </g>
        <g
           style="fill:#cfae94;fill-opacity:1"
           id="g91">
          <g
             transform="translate(327.91997,267.56818)"
             id="g89">
            <path
               style="stroke:none"
               d="M 15.75,-0.703125 V -28.625 h 3.75 c 1.34375,0 2.515625,0.683594 3.515625,2.046875 1.007813,1.367187 1.671875,3.230469 1.984375,5.59375 h 0.921875 l -0.65625,-7.59375 c -0.03125,-0.5 -0.324219,-0.75 -0.875,-0.75 H 2.875 c -0.554688,0 -0.84375,0.25 -0.875,0.75 l -0.640625,7.59375 h 0.90625 C 2.585938,-23.347656 3.25,-25.210938 4.25,-26.578125 5.257812,-27.941406 6.429688,-28.625 7.765625,-28.625 h 3.75 v 27.921875 h -3.75 V 0 H 19.5 v -0.703125 z m 0,0"
               id="path87" />
          </g>
        </g>
      </g>
      <g
         id="g1123"
         transform="translate(-3.9675064)">
        <g
           style="fill:#0ce3eb;fill-opacity:1"
           id="g103">
          <g
             transform="translate(35.619322,353.74534)"
             id="g101">
            <path
               style="stroke:none"
               d="m 33.179688,-1.324219 h -1.9375 l -9.59375,-31.144531 c -0.144532,-0.425781 -0.425782,-0.617188 -0.804688,-0.617188 H 10.492188 c -0.332032,0 -0.613282,0.285157 -0.613282,0.664063 0,0.378906 0.28125,0.660156 0.613282,0.660156 h 2.742187 l -9.832031,30.4375 H 0.757812 c -0.332031,0 -0.617187,0.332031 -0.617187,0.664063 C 0.140625,-0.285156 0.425781,0 0.757812,0 h 7.277344 c 0.332032,0 0.613282,-0.285156 0.613282,-0.660156 0,-0.332032 -0.28125,-0.664063 -0.613282,-0.664063 H 4.867188 L 7.46875,-9.359375 h 13.707031 l 2.503907,8.035156 H 21.03125 c -0.328125,0 -0.613281,0.332031 -0.613281,0.664063 0,0.375 0.285156,0.660156 0.613281,0.660156 h 12.148438 c 0.332031,0 0.613281,-0.285156 0.613281,-0.660156 0,-0.332032 -0.28125,-0.664063 -0.613281,-0.664063 z m -8.035157,0 -9.359375,-30.4375 h 4.632813 l 9.359375,30.4375 z m -4.347656,-9.355469 H 7.894531 l 6.617188,-20.371093 z m 0,0"
               id="path99" />
          </g>
        </g>
        <g
           style="fill:#0ce3eb;fill-opacity:1"
           id="g109">
          <g
             transform="translate(88.601846,353.74534)"
             id="g107">
            <path
               style="stroke:none"
               d="M 20.511719,-14.132812 6.476562,-30.769531 c 1.371094,-0.992188 3.257813,-1.605469 5.621094,-1.605469 3.734375,0 7.28125,2.742188 7.28125,5.480469 v 0.757812 c 0,0.378907 0.328125,0.707031 0.707032,0.707031 0.378906,0 0.710937,-0.328124 0.710937,-0.707031 v -6.949219 c 0,-0.375 -0.332031,-0.660156 -0.710937,-0.660156 -0.378907,0 -0.707032,0.285156 -0.707032,0.660156 v 2.601563 c -1.65625,-1.984375 -4.492187,-3.308594 -7.28125,-3.308594 -5.8125,0 -9.355468,3.355469 -9.355468,7.65625 0,2.222657 1.039062,4.679688 3.023437,7.042969 L 19.09375,-3.214844 c -1.558594,1.511719 -3.875,2.507813 -6.710938,2.507813 -4.726562,0 -8.933593,-2.980469 -8.933593,-6.289063 v -1.324218 c 0,-0.375 -0.328125,-0.660157 -0.707031,-0.660157 -0.378907,0 -0.710938,0.285157 -0.710938,0.660157 V 0 c 0,0.378906 0.332031,0.660156 0.710938,0.660156 0.378906,0 0.707031,-0.28125 0.707031,-0.660156 v -3.167969 c 1.9375,2.410157 5.578125,3.875 8.933593,3.875 6.238282,0 10.351563,-4.300781 10.351563,-9.027343 0,-1.984376 -0.664063,-3.96875 -2.222656,-5.8125 z M 4.160156,-26.136719 c 0,-1.371093 0.472656,-2.648437 1.273438,-3.6875 l 13.992187,16.589844 c 1.277344,1.511719 1.890625,3.261719 1.890625,4.914063 0,1.417968 -0.472656,2.835937 -1.277344,4.019531 l -13.1875,-15.691407 c -1.746093,-2.128906 -2.691406,-4.207031 -2.691406,-6.144531 z m 0,0"
               id="path105" />
          </g>
        </g>
        <g
           style="fill:#0ce3eb;fill-opacity:1"
           id="g115">
          <g
             transform="translate(131.80184,353.74534)"
             id="g113">
            <path
               style="stroke:none"
               d="m 34.929688,-1.324219 h -2.363282 v -30.4375 h 2.171875 c 0.378907,0 0.710938,-0.28125 0.710938,-0.660156 0,-0.378906 -0.332031,-0.664063 -0.710938,-0.664063 H 23.253906 c -0.378906,0 -0.710937,0.285157 -0.710937,0.664063 0,0.378906 0.332031,0.660156 0.710937,0.660156 h 1.9375 v 13.847657 H 13.1875 v -13.847657 h 2.316406 c 0.375,0 0.660156,-0.28125 0.660156,-0.660156 0,-0.378906 -0.285156,-0.664063 -0.660156,-0.664063 H 3.734375 c -0.472656,0 -0.757813,0.285157 -0.757813,0.664063 0,0.378906 0.285157,0.660156 0.757813,0.660156 H 5.8125 v 30.4375 H 3.261719 c -0.378907,0 -0.664063,0.285157 -0.664063,0.664063 C 2.597656,-0.234375 2.882812,0 3.261719,0 h 12.714843 c 0.375,0 0.660157,-0.234375 0.660157,-0.660156 0,-0.378906 -0.285157,-0.664063 -0.660157,-0.664063 H 13.1875 v -15.265625 h 12.003906 v 15.265625 h -2.695312 c -0.375,0 -0.707032,0.285157 -0.707032,0.664063 0,0.375 0.332032,0.660156 0.707032,0.660156 h 12.433594 c 0.375,0 0.707031,-0.285156 0.707031,-0.660156 0,-0.378906 -0.332031,-0.664063 -0.707031,-0.664063 z m -23.160157,0 H 7.230469 v -30.4375 h 4.539062 z m 14.839844,0 v -30.4375 h 4.539063 v 30.4375 z m 0,0"
               id="path111" />
          </g>
        </g>
        <g
           style="fill:#0ce3eb;fill-opacity:1"
           id="g121">
          <g
             transform="translate(188.94312,353.74534)"
             id="g119">
            <path
               style="stroke:none"
               d="m 30.296875,-1.324219 h -2.128906 v -8.035156 c 0,-3.023437 -1.984375,-5.574219 -4.679688,-6.519531 2.886719,-1.515625 4.871094,-4.539063 4.871094,-8.132813 0,-5.859375 -3.875,-9.074219 -9.3125,-9.074219 H 3.542969 c -0.421875,0 -0.660157,0.191407 -0.660157,0.570313 0,0.421875 0.238282,0.707031 0.660157,0.707031 H 5.765625 V -1.324219 H 3.261719 c -0.378907,0 -0.664063,0.285157 -0.664063,0.664063 C 2.597656,-0.285156 2.882812,0 3.261719,0 h 11.34375 c 0.425781,0 0.660156,-0.285156 0.660156,-0.660156 0,-0.378906 -0.234375,-0.664063 -0.660156,-0.664063 h -1.464844 v -13.609375 h 7.464844 V -0.707031 C 20.605469,-0.285156 20.890625,0 21.316406,0 h 8.980469 c 0.378906,0 0.707031,-0.234375 0.707031,-0.660156 0,-0.378906 -0.328125,-0.664063 -0.707031,-0.664063 z m -18.574219,0 H 7.183594 v -30.484375 h 4.539062 z m 7.75,-14.933593 h -6.332031 v -15.550782 h 5.90625 c 0.519531,0 1.039063,0.04687 1.558594,0.09375 v 15.363282 c -0.375,0.04687 -0.753907,0.09375 -1.132813,0.09375 z m 7.46875,-7.753907 c 0,3.359375 -2.035156,6.191407 -4.917968,7.28125 v -14.652343 c 3.027343,0.945312 4.917968,3.449218 4.917968,7.371093 z m -4.917968,22.6875 v -13.5625 c 2.648437,0.375 4.726562,2.789063 4.726562,5.527344 v 8.035156 z m 0,0"
               id="path117" />
          </g>
        </g>
        <g
           style="fill:#0ce3eb;fill-opacity:1"
           id="g127">
          <g
             transform="translate(240.2716,353.74534)"
             id="g125">
            <path
               style="stroke:none"
               d="m 33.179688,-1.324219 h -1.9375 l -9.59375,-31.144531 c -0.144532,-0.425781 -0.425782,-0.617188 -0.804688,-0.617188 H 10.492188 c -0.332032,0 -0.613282,0.285157 -0.613282,0.664063 0,0.378906 0.28125,0.660156 0.613282,0.660156 h 2.742187 l -9.832031,30.4375 H 0.757812 c -0.332031,0 -0.617187,0.332031 -0.617187,0.664063 C 0.140625,-0.285156 0.425781,0 0.757812,0 h 7.277344 c 0.332032,0 0.613282,-0.285156 0.613282,-0.660156 0,-0.332032 -0.28125,-0.664063 -0.613282,-0.664063 H 4.867188 L 7.46875,-9.359375 h 13.707031 l 2.503907,8.035156 H 21.03125 c -0.328125,0 -0.613281,0.332031 -0.613281,0.664063 0,0.375 0.285156,0.660156 0.613281,0.660156 h 12.148438 c 0.332031,0 0.613281,-0.285156 0.613281,-0.660156 0,-0.332032 -0.28125,-0.664063 -0.613281,-0.664063 z m -8.035157,0 -9.359375,-30.4375 h 4.632813 l 9.359375,30.4375 z m -4.347656,-9.355469 H 7.894531 l 6.617188,-20.371093 z m 0,0"
               id="path123" />
          </g>
        </g>
        <g
           style="fill:#0ce3eb;fill-opacity:1"
           id="g133">
          <g
             transform="translate(293.25412,353.74534)"
             id="g131">
            <path
               style="stroke:none"
               d="m 42.867188,-1.324219 h -2.644532 v -30.4375 h 2.171875 c 0.425781,0 0.664063,-0.28125 0.664063,-0.660156 0,-0.332031 -0.238282,-0.664063 -0.664063,-0.664063 h -8.933593 c -0.375,0 -0.660157,0.144532 -0.800782,0.570313 l -8.699218,22.875 -10.726563,-22.925781 c -0.140625,-0.328125 -0.425781,-0.519532 -0.804687,-0.519532 h -9.78125 c -0.378907,0 -0.710938,0.285157 -0.710938,0.664063 0,0.378906 0.332031,0.660156 0.710938,0.660156 h 2.644531 v 30.4375 H 1.9375 c -0.425781,0 -0.660156,0.332031 -0.660156,0.664063 C 1.277344,-0.285156 1.511719,0 1.9375,0 h 8.695312 c 0.425782,0 0.664063,-0.285156 0.664063,-0.660156 0,-0.332032 -0.238281,-0.664063 -0.664063,-0.664063 H 6.710938 V -29.207031 L 20.511719,0.285156 c 0.140625,0.28125 0.378906,0.421875 0.613281,0.421875 0.238281,0 0.472656,-0.140625 0.617188,-0.472656 l 11.105468,-29.300781 0.04687,-0.332032 v 28.074219 h -2.03125 c -0.472656,0 -0.710937,0.332031 -0.710937,0.664063 C 30.152344,-0.332031 30.390625,0 30.863281,0 h 12.003907 c 0.425781,0 0.664062,-0.285156 0.664062,-0.660156 0,-0.332032 -0.238281,-0.664063 -0.664062,-0.664063 z M 23.253906,-7.847656 21.03125,-1.9375 7.089844,-31.761719 h 4.960937 z M 34.3125,-1.324219 v -30.4375 h 4.492188 v 30.4375 z m 0,0"
               id="path129" />
          </g>
        </g>
      </g>
      <g
         clip-rule="nonzero"
         clip-path="url(#clip1)"
         id="g137"
         style="fill:none"
         transform="translate(-5.4038299)">
        <path
           style="fill:none;fill-opacity:1;fill-rule:nonzero;stroke:none"
           d="M 272.57812,96.730469 V 74.894531 L 257.14453,59.421875 v -18.8125 h -18.8125 L 222.85937,25.175781 h -21.83593 l -13.31641,-13.316406 -13.3125,13.316406 h -21.83594 l -15.47265,15.433594 h -18.8125 v 18.8125 l -15.4336,15.472656 v 21.835938 l -13.312496,13.312501 13.312496,13.3125 v 21.83594 l 15.4336,15.47265 v 18.8125 h 18.8125 l 15.47265,15.4336 h 21.83594 l 13.3125,13.3125 13.31641,-13.3125 h 21.83593 l 15.47266,-15.4336 h 18.8125 v -18.8125 l 15.43359,-15.47265 v -21.83594 l 13.3125,-13.3125 z m 0,0"
           id="path135" />
      </g>
      <path
         style="fill:#cfae94;fill-opacity:1;fill-rule:nonzero;stroke:none"
         d="m 209.85397,176.64844 h -55.13672 l -38.99999,-38.9961 V 82.472656 l 38.99999,-38.996094 h 55.17579 l 39,38.996094 v 55.179684 z m -53.88281,-3.0625 h 52.62891 l 37.23047,-37.23047 V 83.730469 L 208.60007,46.5 h -52.62891 l -37.23047,37.230469 v 52.625001 z m 0,0"
         id="path139" />
      <path
         style="fill:#cfae94;fill-opacity:1;fill-rule:nonzero;stroke:none"
         d="M 212.89695,183.95312 H 151.67039 L 108.39305,140.67578 V 79.410156 l 43.27734,-43.277344 h 61.22656 l 43.32031,43.277344 v 61.265624 z m -59.92969,-3.0625 h 58.71485 l 41.51172,-41.51171 V 80.707031 L 211.64304,39.195312 h -58.67578 l -41.51171,41.511719 v 58.710939 z m 0,0"
         id="path141" />
      <path
         style="fill:#cfae94;fill-opacity:1;fill-rule:nonzero;stroke:none"
         d="M 240.78367,168.51953 H 123.82664 V 51.566406 h 116.91797 z m -113.89063,-3.0625 H 237.71726 V 54.628906 H 126.89304 Z m 0,0"
         id="path143" />
      <path
         style="fill:#cfae94;fill-opacity:1;fill-rule:nonzero;stroke:none"
         d="M 182.3032,192.71094 99.635226,110.04297 182.3032,27.375 l 82.67188,82.66797 z m -78.34765,-82.66797 78.34765,78.34765 78.35156,-78.34765 -78.35156,-78.347658 z m 0,0"
         id="path145" />
      <path
         style="fill:#7f0000;fill-opacity:1;fill-rule:nonzero;stroke:none"
         d="m 182.30515,92.632812 c -0.64063,0 -1.27735,0.03125 -1.91016,0.08984 -0.63672,0.0625 -1.26953,0.15625 -1.89453,0.277344 -0.625,0.121094 -1.24609,0.273438 -1.85547,0.457031 -0.61328,0.179688 -1.21094,0.390625 -1.80078,0.628907 -0.59375,0.242187 -1.16797,0.507812 -1.73047,0.804687 -0.56641,0.292969 -1.11328,0.617187 -1.64453,0.964844 -0.52734,0.347656 -1.04297,0.71875 -1.53516,1.117187 -0.49218,0.398438 -0.96484,0.816406 -1.41797,1.261719 -0.45312,0.441406 -0.8789,0.90625 -1.28515,1.390625 -0.40625,0.484384 -0.78516,0.984384 -1.14063,1.507814 -0.35547,0.51953 -0.68359,1.05469 -0.98437,1.60938 -0.30078,0.55078 -0.57422,1.11719 -0.81641,1.69531 -0.24609,0.57813 -0.46094,1.16797 -0.64453,1.76563 -0.1875,0.60156 -0.33984,1.20703 -0.46484,1.82421 -0.125,0.61329 -0.21875,1.23047 -0.28125,1.85547 -0.0625,0.6211 -0.0937,1.2461 -0.0937,1.875 0,0.625 0.0312,1.25 0.0937,1.875 0.0625,0.6211 0.15625,1.24219 0.28125,1.85547 0.125,0.61328 0.27734,1.21875 0.46484,1.82031 0.18359,0.59766 0.39844,1.1875 0.64453,1.76563 0.24219,0.57812 0.51563,1.14453 0.81641,1.69922 0.30078,0.55078 0.6289,1.08594 0.98437,1.60937 0.35547,0.51953 0.73438,1.02344 1.14063,1.50782 0.40625,0.48437 0.83203,0.94531 1.28515,1.39062 0.45313,0.44141 0.92579,0.86328 1.41797,1.25781 0.49219,0.39844 1.00782,0.76953 1.53516,1.1211 0.53125,0.34765 1.07812,0.66796 1.64453,0.96484 0.5625,0.29297 1.13672,0.5625 1.73047,0.80078 0.58984,0.23828 1.1875,0.44922 1.80078,0.63281 0.60938,0.17969 1.23047,0.33203 1.85547,0.45703 0.625,0.1211 1.25781,0.21094 1.89453,0.27344 0.63281,0.0625 1.26953,0.0937 1.91016,0.0937 0.63672,0 1.27343,-0.0312 1.91015,-0.0937 0.63672,-0.0625 1.26563,-0.15234 1.89453,-0.27344 0.625,-0.125 1.2461,-0.27734 1.85547,-0.45703 0.60938,-0.18359 1.21094,-0.39453 1.80078,-0.63281 0.58985,-0.23828 1.16797,-0.50781 1.73047,-0.80078 0.5625,-0.29688 1.10938,-0.61719 1.64063,-0.96484 0.53125,-0.35157 1.04297,-0.72266 1.53906,-1.1211 0.49219,-0.39453 0.96484,-0.8164 1.41797,-1.25781 0.44922,-0.44531 0.87891,-0.90625 1.28516,-1.39062 0.40234,-0.48438 0.78515,-0.98829 1.14062,-1.50782 0.35156,-0.52343 0.67969,-1.05859 0.98047,-1.60937 0.30078,-0.55469 0.57422,-1.1211 0.82031,-1.69922 0.24219,-0.57813 0.45703,-1.16797 0.64453,-1.76563 0.1836,-0.60156 0.33985,-1.20703 0.46485,-1.82031 0.125,-0.61328 0.21875,-1.23437 0.28125,-1.85547 0.0625,-0.625 0.0937,-1.25 0.0937,-1.875 0,-0.6289 -0.0312,-1.2539 -0.0937,-1.875 -0.0625,-0.625 -0.15625,-1.24218 -0.28125,-1.85547 -0.125,-0.61718 -0.28125,-1.22265 -0.46485,-1.82421 -0.1875,-0.59766 -0.40234,-1.1875 -0.64453,-1.76563 -0.24609,-0.57812 -0.51953,-1.14453 -0.82031,-1.69531 -0.30078,-0.55469 -0.62891,-1.08985 -0.98047,-1.60938 -0.35547,-0.52343 -0.73828,-1.02343 -1.14062,-1.507814 -0.40625,-0.484375 -0.83594,-0.949219 -1.28516,-1.390625 -0.45313,-0.445313 -0.92578,-0.863281 -1.41797,-1.261719 -0.49609,-0.398437 -1.00781,-0.769531 -1.53906,-1.117187 -0.53125,-0.347657 -1.07813,-0.671875 -1.64063,-0.964844 -0.5625,-0.296875 -1.14062,-0.5625 -1.73047,-0.804687 -0.58984,-0.238282 -1.1914,-0.449219 -1.80078,-0.628907 -0.60937,-0.183593 -1.23047,-0.335937 -1.85547,-0.457031 -0.6289,-0.121094 -1.25781,-0.214844 -1.89453,-0.277344 -0.63672,-0.05859 -1.27343,-0.08984 -1.91015,-0.08984 z m 0,0"
         id="path147" />
    </g>
  </g>
</svg>
